:FULLY-SPECIFIED
:FORCE-ALL-JOINTS-BE-3DOF
:DEGREES
2039
root -3.27045 15.1056 22.267 898.661 -7.79217 172.631
lfemur -18.5868 11.903 -23.9356
ltibia 56.2491 0 0
lfoot -25.1332 16.27 0
ltoes -42.5327 0 0
rfemur -59.819 -16.1022 20.5027
rtibia 69.6423 0 0
rfoot -4.71469 4.19324 0
rtoes -13.1844 0 0
lowerback 15.6576 -0.787912 -8.91109
upperback -0.452551 -2.64076 1.61242
thorax -8.83893 -0.857396 7.4477
lowerneck -3.28703 -3.20373 -5.54344
upperneck 6.83519 -3.93633 0.890943
head 2.88056 -2.03153 1.08134
lclavicle 1.35593e-14 4.86473e-16 0
lhumerus 0.253898 -32.8782 82.4117
lradius 63.6853 0 0
lwrist -3.95178 0 0
lhand -25.0219 36.0049 0
lfingers 7.12502 0 0
lthumb 1.49041 -654.022 0
rclavicle 1.35593e-14 4.86473e-16 0
rhumerus -3.06511 19.2562 -71.7199
rradius 122.314 0 0
rwrist -42.0008 0 0
rhand 23.6179 -387.703 0
rfingers 7.12502 0 0
rthumb 47.8923 310.006 0
2040
root -3.27549 15.0778 22.0841 898.618 -7.87798 172.629
lfemur -18.4435 11.831 -23.9191
ltibia 56.2311 0 0
lfoot -25.1663 16.3453 0
ltoes -42.5321 0 0
rfemur -59.6796 -16.0564 20.3637
rtibia 69.3918 0 0
rfoot -4.4765 4.20597 0
rtoes -13.0035 0 0
lowerback 15.6446 -0.757506 -8.909
upperback -0.437707 -2.59949 1.60318
thorax -8.82273 -0.839332 7.42708
lowerneck -3.2861 -3.2575 -5.5887
upperneck 6.86868 -4.01271 0.921956
head 2.8967 -2.0709 1.09205
lclavicle 1.41233e-14 5.715e-16 0
lhumerus -0.318764 -32.7148 82.649
lradius 64.0451 0 0
lwrist -3.38507 0 0
lhand -25.052 35.8852 0
lfingers 7.12502 0 0
lthumb 1.46137 -654.142 0
rclavicle 1.41233e-14 5.715e-16 0
rhumerus -2.60447 18.9661 -71.7884
rradius 121.31 0 0
rwrist -40.9923 0 0
rhand 23.3957 -387.703 0
rfingers 7.12502 0 0
rthumb 47.6823 309.95 0
2041
root -3.28054 15.05 21.9012 898.6 -7.85202 172.644
lfemur -18.3961 11.791 -23.893
ltibia 56.2457 0 0
lfoot -25.1449 16.453 0
ltoes -42.525 0 0
rfemur -59.413 -15.9835 20.197
rtibia 69.2881 0 0
rfoot -4.26846 4.07981 0
rtoes -12.7483 0 0
lowerback 15.6242 -0.734833 -8.88205
upperback -0.423348 -2.56206 1.60036
thorax -8.80309 -0.823877 7.3995
lowerneck -3.2932 -3.27412 -5.60805
upperneck 6.88402 -4.04 0.92685
head 2.90832 -2.08591 1.09162
lclavicle 1.46833e-14 1.01993e-15 0
lhumerus -0.816903 -32.3707 82.8363
lradius 64.2312 0 0
lwrist -2.87925 0 0
lhand -25.0849 35.7807 0
lfingers 7.12502 0 0
lthumb 1.42956 -654.246 0
rclavicle 1.46833e-14 1.01993e-15 0
rhumerus -2.43671 18.6822 -71.986
rradius 120.23 0 0
rwrist -40.0662 0 0
rhand 23.0091 -387.774 0
rfingers 7.12502 0 0
rthumb 47.3168 309.785 0
2042
root -3.28559 15.0222 21.7182 898.585 -7.77746 172.67
lfemur -18.3659 11.7482 -23.8545
ltibia 56.2769 0 0
lfoot -25.0966 16.6101 0
ltoes -42.5132 0 0
rfemur -59.0075 -15.8753 19.9617
rtibia 69.1996 0 0
rfoot -3.99763 3.86011 0
rtoes -12.3768 0 0
lowerback 15.594 -0.706889 -8.83682
upperback -0.40409 -2.51276 1.59881
thorax -8.77531 -0.803888 7.35974
lowerneck -3.30565 -3.28349 -5.62507
upperneck 6.89838 -4.0596 0.924253
head 2.92245 -2.09762 1.0871
lclavicle 1.54395e-14 1.75489e-15 0
lhumerus -1.46455 -31.8413 83.0719
lradius 64.4214 0 0
lwrist -2.21639 0 0
lhand -25.1305 35.6446 0
lfingers 7.12502 0 0
lthumb 1.38555 -654.382 0
rclavicle 1.54395e-14 1.75489e-15 0
rhumerus -2.31312 18.3003 -72.2989
rradius 118.741 0 0
rwrist -38.8424 0 0
rhand 22.4282 -387.894 0
rfingers 7.12502 0 0
rthumb 46.7675 309.524 0
2043
root -3.29064 14.9944 21.5353 898.549 -7.71745 172.702
lfemur -18.274 11.6678 -23.8003
ltibia 56.3088 0 0
lfoot -25.0493 16.8337 0
ltoes -42.4984 0 0
rfemur -58.4512 -15.7236 19.6168
rtibia 68.9947 0 0
rfoot -3.57109 3.5922 0
rtoes -11.8471 0 0
lowerback 15.5516 -0.660665 -8.77989
upperback -0.374554 -2.43591 1.59339
thorax -8.73467 -0.772223 7.30256
lowerneck -3.32076 -3.31553 -5.66337
upperneck 6.9289 -4.11291 0.932792
head 2.94611 -2.12708 1.08556
lclavicle 1.65921e-14 2.69951e-15 0
lhumerus -2.48575 -31.1222 83.4545
lradius 64.7942 0 0
lwrist -1.17857 0 0
lhand -25.1984 35.4302 0
lfingers 7.12502 0 0
lthumb 1.31989 -654.597 0
rclavicle 1.65921e-14 2.69951e-15 0
rhumerus -1.98497 17.7162 -72.7133
rradius 116.512 0 0
rwrist -36.9407 0 0
rhand 21.6228 -388.044 0
rfingers 7.12502 0 0
rthumb 46.006 309.178 0
2044
root -3.29569 14.9666 21.3524 898.472 -7.73515 172.734
lfemur -18.0417 11.5149 -23.7275
ltibia 56.3255 0 0
lfoot -25.0306 17.1408 0
ltoes -42.4821 0 0
rfemur -57.7324 -15.5202 19.1215
rtibia 68.5419 0 0
rfoot -2.89589 3.32143 0
rtoes -11.117 0 0
lowerback 15.4946 -0.583156 -8.71781
upperback -0.329358 -2.31582 1.57894
thorax -8.67647 -0.721737 7.22272
lowerneck -3.33582 -3.40013 -5.74655
upperneck 6.99274 -4.24131 0.971096
head 2.98633 -2.19537 1.09404
lclavicle 1.83416e-14 3.7769e-15 0
lhumerus -4.10453 -30.2088 84.0825
lradius 65.5275 0 0
lwrist 0.452136 0 0
lhand -25.2986 35.0909 0
lfingers 7.12502 0 0
lthumb 1.22317 -654.936 0
rclavicle 1.83416e-14 3.7769e-15 0
rhumerus -1.20353 16.8255 -73.2154
rradius 113.212 0 0
rwrist -33.9809 0 0
rhand 20.5627 -388.202 0
rfingers 7.12502 0 0
rthumb 45.0038 308.761 0
2045
root -3.30074 14.9387 21.1695 898.33 -7.89372 172.761
lfemur -17.5902 11.2547 -23.633
ltibia 56.3111 0 0
lfoot -25.0682 17.5485 0
ltoes -42.4661 0 0
rfemur -56.8393 -15.257 18.4348
rtibia 67.7096 0 0
rfoot -1.8791 3.09313 0
rtoes -10.1447 0 0
lowerback 15.4204 -0.461356 -8.65717
upperback -0.263122 -2.1368 1.55031
thorax -8.59602 -0.645289 7.11499
lowerneck -3.34814 -3.56719 -5.89821
upperneck 7.10706 -4.48619 1.05779
head 3.05013 -2.32353 1.11961
lclavicle 2.0888e-14 4.91021e-15 0
lhumerus -6.54492 -29.0966 85.0545
lradius 66.7996 0 0
lwrist 2.89364 0 0
lhand -25.4407 34.5799 0
lfingers 7.12502 0 0
lthumb 1.08593 -655.447 0
rclavicle 2.0888e-14 4.91021e-15 0
rhumerus 0.279923 15.5242 -73.7914
rradius 108.508 0 0
rwrist -29.5827 0 0
rhand 19.2179 -388.348 0
rfingers 7.12502 0 0
rthumb 43.7327 308.284 0
2046
root -3.30579 14.9109 20.9865 898.102 -8.25633 172.776
lfemur -16.8407 10.8522 -23.5138
ltibia 56.2497 0 0
lfoot -25.1898 18.0737 0
ltoes -42.452 0 0
rfemur -55.76 -14.9257 17.5159
rtibia 66.3663 0 0
rfoot -0.427782 2.95265 0
rtoes -8.88813 0 0
lowerback 15.3268 -0.282257 -8.60454
upperback -0.170464 -1.88316 1.50236
thorax -8.4886 -0.535734 6.97414
lowerneck -3.35504 -3.84664 -6.14197
upperneck 7.289 -4.88894 1.21151
head 3.14455 -2.53262 1.16932
lclavicle 2.44318e-14 6.02255e-15 0
lhumerus -10.031 -27.7809 86.469
lradius 68.7887 0 0
lwrist 6.36387 0 0
lhand -25.6345 33.8504 0
lfingers 7.12502 0 0
lthumb 0.89874 -656.176 0
rclavicle 2.44318e-14 6.02255e-15 0
rhumerus 2.71411 13.7079 -74.4275
rradius 102.069 0 0
rwrist -23.366 0 0
rhand 17.5582 -388.461 0
rfingers 7.12502 0 0
rthumb 42.1642 307.759 0
2047
root -3.31084 14.8831 20.8036 897.766 -8.88614 172.776
lfemur -15.7145 10.2727 -23.3668
ltibia 56.1255 0 0
lfoot -25.4232 18.7336 0
ltoes -42.4416 0 0
rfemur -54.4828 -14.5182 16.3237
rtibia 64.3805 0 0
rfoot 1.551 2.94533 0
rtoes -7.30527 0 0
lowerback 15.2112 -0.0328546 -8.56649
upperback -0.046002 -1.53921 1.42993
thorax -8.34951 -0.38593 6.79493
lowerneck -3.35381 -4.26837 -6.50141
upperneck 7.55574 -5.49096 1.45088
head 3.2766 -2.8437 1.25022
lclavicle 2.91732e-14 7.03705e-15 0
lhumerus -14.7867 -26.2573 88.4246
lradius 71.6729 0 0
lwrist 11.0808 0 0
lhand -25.8898 32.8557 0
lfingers 7.12502 0 0
lthumb 0.652173 -657.171 0
rclavicle 2.91732e-14 7.03705e-15 0
rhumerus 6.34777 11.2724 -75.1099
rradius 93.5635 0 0
rwrist -14.9506 0 0
rhand 15.5534 -388.521 0
rfingers 7.12502 0 0
rthumb 40.2699 307.199 0
2048
root -3.31588 14.8553 20.6207 897.299 -9.8463 172.754
lfemur -14.1329 9.48123 -23.1889
ltibia 55.9224 0 0
lfoot -25.796 19.5452 0
ltoes -42.4364 0 0
rfemur -52.9959 -14.0262 14.8174
rtibia 61.6205 0 0
rfoot 4.15019 3.1165 0
rtoes -5.35416 0 0
lowerback 15.0712 0.299859 -8.5496
upperback 0.115644 -1.08926 1.32787
thorax -8.17405 -0.188734 6.57213
lowerneck -3.34176 -4.86229 -7.00015
upperneck 7.92441 -6.33363 1.79453
head 3.45331 -3.27782 1.36937
lclavicle 3.53124e-14 7.87684e-15 0
lhumerus -21.0361 -24.5211 91.0198
lradius 75.6303 0 0
lwrist 17.2622 0 0
lhand -26.2163 31.5491 0
lfingers 7.12502 0 0
lthumb 0.336788 -658.478 0
rclavicle 3.53124e-14 7.87684e-15 0
rhumerus 11.4296 8.11344 -75.8248
rradius 82.6591 0 0
rwrist -3.9562 0 0
rhand 13.1735 -388.508 0
rfingers 7.12502 0 0
rthumb 38.0216 306.616 0
2049
root -3.32093 14.8275 20.4378 896.679 -11.2 172.704
lfemur -12.017 8.44303 -22.9771
ltibia 55.6247 0 0
lfoot -26.3359 20.5255 0
ltoes -42.4381 0 0
rfemur -51.2875 -13.4417 12.956
rtibia 57.9549 0 0
rfoot 7.46272 3.5115 0
rtoes -2.99278 0 0
lowerback 14.9045 0.72889 -8.56043
upperback 0.319855 -0.51762 1.19103
thorax -7.9575 0.0629986 6.30051
lowerneck -3.3162 -5.65831 -7.66179
upperneck 8.41218 -7.45835 2.26108
head 3.68171 -3.85606 1.53382
lclavicle 4.30498e-14 8.46504e-15 0
lhumerus -29.0033 -22.5679 94.3531
lradius 80.8392 0 0
lwrist 25.1261 0 0
lhand -26.6239 29.8839 0
lfingers 7.12502 0 0
lthumb -0.0568507 -660.143 0
rclavicle 4.30498e-14 8.46504e-15 0
rhumerus 18.2084 4.12678 -76.5585
rradius 69.0246 0 0
rwrist 9.99731 0 0
rhand 10.3883 -388.4 0
rfingers 7.12502 0 0
rthumb 35.3908 306.023 0
2050
root -3.32598 14.7996 20.2548 895.884 -13.0103 172.621
lfemur -9.28804 7.12322 -22.7284
ltibia 55.2163 0 0
lfoot -27.0706 21.6915 0
ltoes -42.4485 0 0
rfemur -49.3458 -12.7563 10.6987
rtibia 53.2521 0 0
rfoot 11.5815 4.17568 0
rtoes -0.179146 0 0
lowerback 14.7085 1.26724 -8.60557
upperback 0.572012 0.191396 1.01426
thorax -7.69517 0.376409 5.97482
lowerneck -3.27444 -6.68632 -8.50992
upperneck 9.0362 -8.90651 2.86917
head 3.96883 -4.59945 1.75064
lclavicle 5.25856e-14 8.72479e-15 0
lhumerus -38.9123 -20.3932 98.523
lradius 87.4776 0 0
lwrist 34.8905 0 0
lhand -27.1222 27.8133 0
lfingers 7.12502 0 0
lthumb -0.538178 -662.214 0
rclavicle 5.25856e-14 8.72479e-15 0
rhumerus 26.9328 -0.791819 -77.2971
rradius 52.3281 0 0
rwrist 27.2901 0 0
rhand 7.16776 -388.177 0
rfingers 7.12502 0 0
rthumb 32.3491 305.431 0
2051
root -3.33103 14.7718 20.0719 894.893 -15.3405 172.501
lfemur -5.8673 5.48694 -22.4397
ltibia 54.6815 0 0
lfoot -28.0279 23.0604 0
ltoes -42.4692 0 0
rfemur -47.159 -11.9619 8.00442
rtibia 47.3805 0 0
rfoot 16.5995 5.15437 0
rtoes 3.12874 0 0
lowerback 14.4808 1.92793 -8.69158
upperback 0.877497 1.05348 0.792421
thorax -7.38236 0.758642 5.58984
lowerneck -3.21378 -7.97625 -9.56816
upperneck 9.81362 -10.7195 3.63742
head 4.32168 -5.52907 2.02688
lclavicle 6.41202e-14 8.57919e-15 0
lhumerus -50.9871 -17.9922 103.628
lradius 95.7238 0 0
lwrist 46.7732 0 0
lhand -27.7212 25.2906 0
lfingers 7.12502 0 0
lthumb -1.11663 -664.737 0
rclavicle 6.41202e-14 8.57919e-15 0
rhumerus 37.8515 -6.7466 -78.0268
rradius 32.238 0 0
rwrist 48.3025 0 0
rhand 3.48166 -387.818 0
rfingers 7.12502 0 0
rthumb 28.8681 304.853 0
2052
root -3.33608 14.744 19.889 893.682 -18.2537 172.336
lfemur -1.676 3.49933 -22.1079
ltibia 54.0042 0 0
lfoot -29.2355 24.649 0
ltoes -42.5018 0 0
rfemur -44.7154 -11.0503 4.83237
rtibia 40.2086 0 0
rfoot 22.6097 6.49292 0
rtoes 6.97287 0 0
lowerback 14.2191 2.72395 -8.82504
upperback 1.24169 2.08432 0.52035
thorax -7.01435 1.21684 5.14034
lowerneck -3.13153 -9.55799 -10.8601
upperneck 10.7616 -12.9387 4.58446
head 4.7473 -6.66597 2.36959
lclavicle 7.78537e-14 7.95139e-15 0
lhumerus -65.4518 -15.3606 109.767
lradius 105.756 0 0
lwrist 60.9921 0 0
lhand -28.4304 22.2691 0
lfingers 7.12502 0 0
lthumb -1.80164 -667.759 0
rclavicle 7.78537e-14 7.95139e-15 0
rhumerus 51.2134 -13.8418 -78.7338
rradius 8.42257 0 0
rwrist 73.4146 0 0
rhand -0.700102 -387.304 0
rfingers 7.12502 0 0
rthumb 24.9196 304.301 0
